<svg width="24" height="24" viewBox="0 0 24 24" fill="none" xmlns="http://www.w3.org/2000/svg">
<path fill-rule="evenodd" clip-rule="evenodd" d="M10.7591 12L15.6653 17.0084C16.1116 17.464 16.1116 18.2027 15.6653 18.6583C15.219 19.1139 14.4953 19.1139 14.049 18.6583L8.33474 12.825C7.88842 12.3693 7.88842 11.6307 8.33474 11.175L14.049 5.34171C14.4953 4.8861 15.219 4.8861 15.6653 5.34171C16.1116 5.79732 16.1116 6.53601 15.6653 6.99162L10.7591 12Z" fill="#828B9A"/>
<mask id="mask0_343_1870" style="mask-type:alpha" maskUnits="userSpaceOnUse" x="8" y="5" width="8" height="14">
<path fill-rule="evenodd" clip-rule="evenodd" d="M10.7591 12L15.6653 17.0084C16.1116 17.464 16.1116 18.2027 15.6653 18.6583C15.219 19.1139 14.4953 19.1139 14.049 18.6583L8.33474 12.825C7.88842 12.3693 7.88842 11.6307 8.33474 11.175L14.049 5.34171C14.4953 4.8861 15.219 4.8861 15.6653 5.34171C16.1116 5.79732 16.1116 6.53601 15.6653 6.99162L10.7591 12Z" fill="white"/>
</mask>
<g mask="url(#mask0_343_1870)">
</g>
</svg>
